<svg xmlns="http://www.w3.org/2000/svg" width="1100" height="468" viewBox="0 0 1100 468"><g fill="none" fill-rule="evenodd"><path fill="#F24440" d="M550 0h550v468.085H550z"/><path fill="#2E3C43" d="M0 0h550v468.085H0z"/><g fill="#FFF" transform="translate(690.426 181.383)"><circle cx="216.489" cy="52.66" r="52.66" fill-opacity=".2"/><path d="M17.32 70.16c7.39 0 11.66-3.216 14.826-7.582l-7.005-4.99c-2.014 2.447-4.077 4.08-7.58 4.08-4.702 0-8.012-3.936-8.012-8.973V52.6c0-4.895 3.31-8.925 8.012-8.925 3.215 0 5.422 1.583 7.34 3.934l7.006-5.423c-2.975-4.078-7.39-6.957-14.25-6.957C7.486 35.23 0 42.907 0 52.695v.096C0 62.82 7.725 70.16 17.32 70.16zm30.673-.673h9.74l2.398-6.045h13.004l2.4 6.045h9.978L71.214 35.662h-8.972l-14.25 33.825zm14.873-13.29l3.79-9.5 3.743 9.5h-7.534zm40.77 13.29h9.308v-10.17h4.126l6.765 10.17h10.7l-8.013-11.707c4.174-1.775 6.91-5.18 6.91-10.363v-.096c0-3.31-1.008-5.852-2.976-7.82-2.255-2.254-5.805-3.598-10.94-3.598h-15.88v33.585zm9.308-17.464v-8.108h6.142c3.07 0 5.037 1.343 5.037 4.03v.096c0 2.448-1.87 3.983-4.99 3.983h-6.19zM161.2 69.487h9.307V44.06h10.076V35.9h-29.41v8.157h10.026v25.427zm55.29.726c9.694 0 17.553-7.86 17.553-17.553 0-9.695-7.86-17.554-17.554-17.554-9.695 0-17.554 7.86-17.554 17.554 0 9.694 7.86 17.553 17.553 17.553z"/></g><path d="M111.17 200.34c0-4.653 3.79-8.425 8.467-8.425h67.733c4.676 0 8.467 3.77 8.467 8.426v67.405c0 4.653-3.79 8.425-8.467 8.425h-67.733c-4.676 0-8.467-3.77-8.467-8.425V200.34zm39.82 54.208c-2.646 0-2.825.33-2.825.33l.65 4.053s.578.39 2.09.39c1.51 0 2.003-.39 2.003-.39l.89-4.03s-.163-.352-2.808-.352zm18.234-30.037l-.145-.112s.257-.12.398-.254c.274-.263.433-.592.38-.556-.472.313-1.39.16-1.39.16s.317-.058.506-.18c.287-.183.37-.437.335-.413-.23.157-.48.203-.653.203-1.086.003-1.262-.927-2.27-.927-.412 0-1.28.422-1.55.004-1.482-3.497-3.712-8.553-5.885-13.668-8.976 1.81-12.967 16.843-4.24 19.514-4.745-1.347-7.042-5.963-6.322-9.975-3.25 1.1-7.48 2.818-10.786 6.786-1.98 2.378-1.972 4.92-1.972 9.952-.098 1.547-1.39 2.135-1.39 2.135s1.54.063 2.03-.718c2.122 3.566 12.36 12.743 12.36 14.84 0 0-.367.986-.254 1 .93.107 5.27.32 5.27.32.188-.714-.25-1.215-.25-1.715 0-5.105 7.352-9.84 8.216-10.42.308.18.846.338 1.11.45 2.475 1.062-.392 7.072-2.958 7.072-2.955 0 1.668-4.828 1.76-4.944.308-.38-.53-.028-.796-.283-.162-.155.02-.57-.383-.248 0 0-6.138 5.224-1.798 6.76 8.227 2.915 20.262-15.828 10.674-24.78zm60.764 25.77c7.264 0 11.07-3.45 13.142-7.25l-5.377-2.925c-1.395 2.68-4.38 4.812-7.765 4.812-6.072 0-10.453-4.614-10.453-10.867 0-6.25 4.38-10.87 10.453-10.87 3.384 0 6.37 2.138 7.765 4.818l5.377-2.978c-2.07-3.838-5.878-7.198-13.142-7.198-10.004 0-17.218 6.007-17.218 16.228 0 10.172 7.214 16.23 17.218 16.23zm27.01-32.952l-12.306 33.136h7.71l2.01-5.596h13.695l2.01 5.596h7.712v-.21l-12.31-32.926H257zm-.718 21.947l4.98-14.41 4.98 14.41h-9.96zm43.88-.508c3.34-.73 6.816-3.943 6.816-10.59 0-6.948-3.986-10.85-10.784-10.85h-15.604v33.137h6.896v-11.19h5.29l6.725 11.19h7.67l-7.01-11.697zm-4.986-4.657h-7.69v-11.187h7.63c2.85 0 5.095 2.074 5.095 5.43 0 3.475-2.186 5.757-5.036 5.757zm30.85 16.354l.258-.235v-27.307h9.914v-5.595H309.9v5.595h9.484v27.54h6.64zm63.458-33.136h-13.197v33.136h13.248c10.608 0 17.374-6.356 17.374-16.91 0-10.445-6.766-16.226-17.425-16.226zm0 27.54h-6.3v-21.945h6.222c6.936 0 10.737 4.755 10.737 10.866 0 5.955-3.926 11.078-10.658 11.078zm43.374-11.012c2.158-.558 4.586-3.66 4.586-8.527 0-4.53-3.033-8.002-9.093-8.002h-17.147v33.136h18.3c6.246 0 9.327-3.593 9.327-8.548 0-4.484-2.614-7.588-5.974-8.06zM418.1 222.923h8.807c2.373 0 3.768 1.7 3.768 4.107 0 2.52-1.484 4.068-3.858 4.068H418.1v-8.175zm9.524 22.018l-.51-.072H418.1v-8.175h9.104c3.384 0 4.86 1.836 4.86 4.105 0 2.594-1.67 4.143-4.44 4.143zm-79.79-34.068h13.796v4.305h-13.795v-4.305zm7.113 40.022c9.167 0 16.598-7.418 16.598-16.568 0-9.15-7.43-16.568-16.598-16.568-9.165 0-16.596 7.418-16.596 16.568 0 9.15 7.432 16.568 16.597 16.568zm0-27.54c6.072 0 10.993 4.912 10.993 10.972s-4.92 10.972-10.993 10.972c-6.07 0-10.99-4.912-10.99-10.972s4.92-10.972 10.99-10.972zm-5.096 17.135l5.564-3.217c.722-.417 1.655-1.347 2.073-2.066l3.228-5.546c.42-.718.17-.964-.55-.547l-5.564 3.22c-.72.416-1.654 1.346-2.072 2.065l-3.228 5.542c-.418.72-.17.966.55.55zm5.213-6.96c.702 0 1.27.57 1.27 1.27 0 .7-.568 1.267-1.27 1.267-.703 0-1.272-.568-1.272-1.267 0-.7.57-1.27 1.273-1.27z" fill="#FFF"/></g></svg>