<svg id="Layer_1" xmlns="http://www.w3.org/2000/svg" viewBox="0 0 961.3 341.1" width="2500" height="887"><style>.st0{fill:#8c929d}.st1{fill:#e24329}.st2{fill:#fc6d26}.st3{fill:#fca326}</style><title>wm_no_bg</title><g id="Page-1"><g id="wm_no_bg"><g id="word" transform="translate(498 107)"><path id="Fill-2" class="st0" d="M237 3.1h-16.4l.1 121.9h66.2v-15.1H237V3.1z"/><path id="Fill-3" class="st0" d="M350 103.5c-4.1 4.3-11 8.6-20.3 8.6-12.5 0-17.5-6.1-17.5-14.1 0-12.1 8.4-17.9 26.2-17.9 3.3 0 8.7.4 11.5.9v22.5zm-16.9-73.8c-13.2 0-25.3 4.7-34.8 12.5l5.8 10c6.7-3.9 14.9-7.8 26.6-7.8 13.4 0 19.4 6.9 19.4 18.4v6c-2.6-.6-8-.9-11.3-.9-28.7 0-43.2 10-43.2 31.1 0 18.8 11.5 28.3 29 28.3 11.8 0 23.1-5.4 27-14.1l3 11.9H366V62.6c0-19.7-8.6-32.9-32.9-32.9z"/><path id="Fill-5" class="st0" d="M418.8 112.7c-6.1 0-11.5-.7-15.6-2.6V53.6c5.6-4.7 12.5-8 21.2-8 15.8 0 22 11.2 22 29.2 0 25.8-9.9 37.9-27.6 37.9m6.9-83c-14.6 0-22.5 10-22.5 10V23.9l-.1-20.8h-16l.1 118.9c8 3.3 19 5.2 30.9 5.2 30.5 0 45.2-19.5 45.2-53.2 0-26.7-13.6-44.3-37.6-44.3"/><path id="Fill-7" class="st0" d="M59 16.3c14.5 0 23.8 4.8 30 9.7l7-12.2C86.4 5.4 73.5.8 59.8.8 25 .8.6 22 .6 64.8c0 44.8 26.3 62.3 56.4 62.3 15.1 0 27.9-3.5 36.3-7.1L93 72.1V57H48.3v15.1h28.5l.3 36.4c-3.7 1.9-10.2 3.3-19 3.3-24.2 0-40.4-15.2-40.4-47.3 0-32.4 16.8-48.2 41.3-48.2"/><path id="Fill-9" class="st0" d="M174.2 3.1h-16l.1 20.5V94.2c0 19.7 8.6 32.9 32.9 32.9 3.4 0 6.7-.3 9.9-.9v-14.4c-2.3.4-4.8.6-7.4.6-13.4 0-19.3-6.9-19.3-18.4V45.3H201V31.9h-26.8V3.1z"/><path id="Fill-11" class="st0" d="M117.6 124.9h16v-93h-16v93z"/><path id="Fill-13" class="st0" d="M117.6 19.1h16v-16h-16v16z"/></g><g id="logo"><path id="Fill-14" class="st1" d="M185.4 341.1l68-209.3h-136l68 209.3z"/><path id="Fill-16" class="st2" d="M185.4 341.1l-68-209.3H22.1l163.3 209.3z"/><path id="Fill-18" class="st3" d="M22.1 131.8L1.4 195.4c-1.9 5.8.2 12.2 5.1 15.7l178.9 130L22.1 131.8z"/><path id="Fill-20" class="st1" d="M22.1 131.8h95.3L76.4 5.7C74.3-.8 65.1-.8 63 5.7L22.1 131.8z"/><path id="Fill-21" class="st2" d="M185.4 341.1l68-209.3h95.3L185.4 341.1z"/><path id="Fill-22" class="st3" d="M348.7 131.8l20.7 63.6c1.9 5.8-.2 12.2-5.1 15.7l-178.9 130 163.3-209.3z"/><path id="Fill-23" class="st1" d="M348.7 131.8h-95.3l41-126.1c2.1-6.5 11.3-6.5 13.4 0l40.9 126.1z"/></g></g></g></svg>